<svg width="111" height="76" viewBox="0 0 111 76" fill="none" xmlns="http://www.w3.org/2000/svg">
<path fill-rule="evenodd" clip-rule="evenodd" d="M0.806425 0.000177789C1.26106 -0.00917683 1.63719 0.351793 1.64655 0.806425C1.8461 10.5048 2.10706 19.9055 5.78705 28.8607C12.4319 45.0307 25.4135 57.0948 41.3519 64.0245C61.9987 73.0014 86.8017 74.7124 109.161 72.6162C109.614 72.5737 110.015 72.9063 110.058 73.3591C110.1 73.8118 109.768 74.2133 109.315 74.2557C86.7959 76.3669 61.6866 74.6613 40.6953 65.5347C24.4175 58.4574 11.0925 46.1037 4.26392 29.4866C0.449562 20.2045 0.198913 10.4988 0.000177789 0.840301C-0.00917683 0.385668 0.351793 0.00953234 0.806425 0.000177789Z" fill="#F67ACB"/>
</svg>
