<svg width="15" height="16" viewBox="0 0 15 16" fill="none" xmlns="http://www.w3.org/2000/svg">
<path d="M14.6091 2.58833C14.4162 2.09015 14.1214 1.63774 13.7436 1.26005C13.3658 0.88236 12.9132 0.58773 12.415 0.395C11.8319 0.17613 11.216 0.0577801 10.5933 0.0450001C9.79082 0.0100001 9.53662 0 7.50162 0C5.46667 0 5.20583 7.45058e-08 4.41 0.0450001C3.78782 0.0571301 3.1723 0.1755 2.59 0.395C2.09161 0.5875 1.63897 0.88206 1.26111 1.25977C0.88325 1.63749 0.58852 2.09002 0.39583 2.58833C0.17692 3.17134 0.0588402 3.78736 0.0466702 4.41C0.0108302 5.21167 0 5.46583 0 7.50165C0 9.53665 1.9744e-07 9.79585 0.0466702 10.5933C0.0591702 11.2166 0.17667 11.8316 0.39583 12.4158C0.58906 12.9139 0.88408 13.3664 1.26203 13.7439C1.63998 14.1216 2.09255 14.4164 2.59083 14.6091C3.17203 14.8369 3.78781 14.9636 4.41166 14.9841C5.21417 15.0191 5.46833 15.0301 7.50332 15.0301C9.53832 15.0301 9.79912 15.0301 10.595 14.9841C11.2176 14.9715 11.8335 14.8534 12.4166 14.635C12.9148 14.4418 13.3672 14.1469 13.745 13.7691C14.1227 13.3913 14.4176 12.9389 14.6108 12.4408C14.83 11.8575 14.9475 11.2425 14.96 10.6192C14.9958 9.81755 15.0066 9.56335 15.0066 7.52755C15.0066 5.49167 15.0066 5.23333 14.96 4.43583C14.9503 3.80439 14.8316 3.17937 14.6091 2.58833ZM13.5941 10.5317C13.5888 11.012 13.5011 11.4877 13.335 11.9384C13.2098 12.2624 13.0182 12.5567 12.7725 12.8022C12.5268 13.0477 12.2324 13.2393 11.9083 13.3642C11.4627 13.5296 10.9919 13.6173 10.5166 13.6234C9.72502 13.6601 9.50162 13.6691 7.47167 13.6691C5.44 13.6691 5.2325 13.6692 4.42583 13.6234C3.95077 13.6175 3.48027 13.5299 3.035 13.3642C2.70974 13.24 2.41417 13.049 2.16741 12.8034C1.92065 12.5577 1.72819 12.2631 1.6025 11.9384C1.4387 11.4926 1.35109 11.0224 1.34333 10.5476C1.3075 9.75585 1.29917 9.53255 1.29917 7.50255C1.29917 5.47167 1.29917 5.26417 1.34333 4.45667C1.34872 3.97669 1.43638 3.50118 1.6025 3.05083C1.85667 2.39333 2.3775 1.87583 3.035 1.62417C3.48049 1.45928 3.95085 1.37164 4.42583 1.365C5.21833 1.32917 5.44083 1.31917 7.47167 1.31917C9.50252 1.31917 9.71082 1.31917 10.5166 1.365C10.992 1.37072 11.4628 1.45839 11.9083 1.62417C12.2324 1.74939 12.5268 1.941 12.7725 2.18669C13.0181 2.43238 13.2098 2.72673 13.335 3.05083C13.4988 3.49663 13.5864 3.9668 13.5941 4.44167C13.63 5.23417 13.6391 5.45667 13.6391 7.4875C13.6391 9.51755 13.6391 9.73585 13.6033 10.5326L13.5941 10.5317Z" fill="#F67ACB"/>
</svg>
