<svg width="16" height="16" viewBox="0 0 16 16" fill="none" xmlns="http://www.w3.org/2000/svg">
<path d="M1.82334 3.64667C2.83034 3.64667 3.64667 2.83033 3.64667 1.82333C3.64667 0.81633 2.83034 0 1.82334 0C0.81634 0 0 0.81633 0 1.82333C0 2.83033 0.81634 3.64667 1.82334 3.64667Z" fill="#F67ACB"/>
<path d="M5.36834 5.02832V15.1442H8.50914V10.1417C8.50914 8.82167 8.75754 7.54332 10.3941 7.54332C12.0083 7.54332 12.0283 9.05247 12.0283 10.225V15.145H15.1708V9.59747C15.1708 6.87249 14.5841 4.77832 11.3991 4.77832C9.87004 4.77832 8.84504 5.61749 8.42584 6.41165H8.38334V5.02832H5.36834ZM0.25 5.02832H3.39584V15.1442H0.25V5.02832Z" fill="#F67ACB"/>
</svg>
