<svg width="17" height="12" viewBox="0 0 17 12" fill="none" xmlns="http://www.w3.org/2000/svg">
<path d="M16.3392 1.83585C16.2442 1.48368 16.0588 1.16252 15.8011 0.904317C15.5435 0.646117 15.2228 0.459896 14.8708 0.364176C13.5658 0.00584638 8.345 6.318e-06 8.345 6.318e-06C8.345 6.318e-06 3.125 -0.00582328 1.81917 0.336677C1.46744 0.436797 1.14735 0.625657 0.889641 0.885117C0.631921 1.14459 0.445241 1.46595 0.347501 1.81835C0.0033313 3.12335 1.21737e-06 5.83001 1.21737e-06 5.83001C1.21737e-06 5.83001 -0.00332874 8.54998 0.338331 9.84168C0.530001 10.5559 1.0925 11.12 1.8075 11.3125C3.12583 11.6709 8.3325 11.6767 8.3325 11.6767C8.3325 11.6767 13.5533 11.6825 14.8583 11.3409C15.2104 11.2453 15.5315 11.0595 15.7897 10.8018C16.048 10.5442 16.2345 10.2236 16.3308 9.87168C16.6758 8.56748 16.6783 5.86168 16.6783 5.86168C16.6783 5.86168 16.695 3.14085 16.3392 1.83585ZM6.675 8.33748L6.67917 3.33751L11.0183 5.84168L6.675 8.33748Z" fill="#F67ACB"/>
</svg>
